<svg xmlns="http://www.w3.org/2000/svg" xmlns:xlink="http://www.w3.org/1999/xlink" version="1.0" viewBox="0 0 128 128" preserveAspectRatio="none"><style> svg * { background-size: cover; background-repeat: no-repeat; } @media all and (max-width: 32px) { #group_1 { opacity: 1; } #group_2, #group_3 { opacity: 0; } } @media all and (min-width: 33px) and (max-width: 127px) { #group_2 { opacity: 1; } #group_1, #group_3 { opacity: 0; } } @media all and (min-width: 128px) { #group_3 { opacity: 1; } #group_1, #group_2 { opacity: 0; } } </style><g id="group_3"><path d="M127.9,49.5c-0.3-0.8-1-1.3-1.8-1.4l-44.3-2.4l-16-41.4C65.6,3.5,64.8,3,64,3c-0.8,0-1.6,0.5-1.9,1.3l-16,41.4L1.9,48.1	c-0.8,0-1.5,0.6-1.8,1.4c-0.3,0.8,0,1.6,0.6,2.2l34.4,28l-11.4,42.9c-0.2,0.8,0.1,1.6,0.8,2.1c0.3,0.3,0.8,0.4,1.2,0.4	c0.4,0,0.8-0.1,1.1-0.3L64,100.6l37.2,24.1c0.7,0.5,1.6,0.4,2.3-0.1c0.7-0.5,1-1.3,0.8-2.1L92.9,79.6l34.4-28	C127.9,51.1,128.2,50.2,127.9,49.5z M89.3,77.3c-0.6,0.5-0.9,1.3-0.7,2.1l10.4,39.1l-34-22c-0.3-0.2-0.7-0.3-1.1-0.3	s-0.8,0.1-1.1,0.3l-34,22l10.4-39.1c0.2-0.8-0.1-1.6-0.7-2.1L7.3,51.8l40.4-2.2c0.8,0,1.5-0.5,1.8-1.3L64,10.6l14.6,37.8	c0.3,0.7,1,1.2,1.8,1.3l40.4,2.2L89.3,77.3z M64,16.1L50.4,51.4l-37.8,2.1l29.4,23.9L32.2,114L64,93.4L95.8,114l-9.7-36.6l29.4-23.9	l-37.8-2.1L64,16.1z M83.8,76.7l8.7,32.9L64,91.1l-28.5,18.5l8.7-32.9L17.8,55.2l33.9-1.8L64,21.7l12.2,31.7l33.9,1.8L83.8,76.7z"></path></g><g transform="scale(8)" id="group_1"><path d="M16,6.2c-0.1-0.2-0.2-0.3-0.4-0.3l-5.2-0.3L8.5,0.7c-0.1-0.4-0.8-0.4-0.9,0L5.7,5.5L0.5,5.8C0.3,5.8,0.1,6,0,6.2	C0,6.4,0,6.6,0.2,6.7l4,3.3l-1.3,5c-0.1,0.2,0,0.4,0.2,0.5c0.1,0.1,0.2,0.1,0.3,0.1c0.1,0,0.2,0,0.3-0.1L8,12.7l4.4,2.8	c0.2,0.1,0.4,0.1,0.6,0c0.2-0.1,0.2-0.3,0.2-0.5l-1.3-5l4-3.3C16,6.6,16,6.4,16,6.2z M10.9,9.4c-0.2,0.1-0.2,0.3-0.2,0.5l1.1,4.1	l-3.5-2.3c-0.1-0.1-0.2-0.1-0.3-0.1c-0.1,0-0.2,0-0.3,0.1L4.2,14l1.1-4.1c0.1-0.2,0-0.4-0.2-0.5L1.8,6.7L6,6.5	c0.2,0,0.4-0.1,0.4-0.3L8,2.3l1.5,3.9C9.6,6.4,9.8,6.5,10,6.5l4.2,0.2L10.9,9.4z"></path></g><g transform="scale(4)" id="group_2"><path d="M32,12.3c-0.1-0.4-0.5-0.7-0.9-0.7l-10.4-0.6l-3.7-9.7C16.8,1,16.4,0.7,16,0.7S15.2,1,15.1,1.4l-3.7,9.7L0.9,11.6	c-0.4,0-0.8,0.3-0.9,0.7c-0.1,0.4,0,0.8,0.3,1.1L8.4,20L5.8,30c-0.1,0.4,0,0.8,0.4,1.1c0.3,0.2,0.8,0.3,1.1,0l8.7-5.6l8.7,5.6	c0.2,0.1,0.4,0.2,0.5,0.2c0.2,0,0.4-0.1,0.6-0.2c0.3-0.2,0.5-0.7,0.4-1.1L23.6,20l8.1-6.6C32,13.1,32.1,12.7,32,12.3z M21.8,18.8	c-0.3,0.2-0.4,0.7-0.3,1l2.2,8.2l-7.1-4.6c-0.2-0.1-0.4-0.2-0.5-0.2s-0.4,0.1-0.5,0.2L8.4,28l2.2-8.2c0.1-0.4,0-0.8-0.3-1l-6.6-5.3	l8.4-0.5c0.4,0,0.7-0.3,0.9-0.6l3-7.9l3,7.9c0.1,0.4,0.5,0.6,0.9,0.6l8.4,0.5L21.8,18.8z"></path></g></svg>