<svg xmlns="http://www.w3.org/2000/svg" xmlns:xlink="http://www.w3.org/1999/xlink" version="1.0" viewBox="0 0 128 128" preserveAspectRatio="none"><style> svg * { background-size: cover; background-repeat: no-repeat; } @media all and (max-width: 32px) { #group_1 { opacity: 1; } #group_2, #group_3 { opacity: 0; } } @media all and (min-width: 33px) and (max-width: 127px) { #group_2 { opacity: 1; } #group_1, #group_3 { opacity: 0; } } @media all and (min-width: 128px) { #group_3 { opacity: 1; } #group_1, #group_2 { opacity: 0; } } </style><g id="group_3"><g>	<path d="M127.3,54l-9.3,2.7v-8.7l9.3,3.9C128.2,52.3,128.2,53.7,127.3,54z M115,84.7c0,0,0.1,0,0.1,0l2-0.5		c0.3-0.1,0.4-0.3,0.4-0.6c-0.1-0.3-0.3-0.4-0.6-0.4l-2,0.5c-0.3,0.1-0.4,0.3-0.4,0.6C114.6,84.5,114.8,84.7,115,84.7z M117.5,86		c-0.1-0.3-0.3-0.4-0.6-0.4l-2,0.5c-0.3,0.1-0.4,0.3-0.4,0.6c0.1,0.2,0.3,0.4,0.5,0.4c0,0,0.1,0,0.1,0l2-0.5		C117.4,86.5,117.5,86.3,117.5,86z M116.9,88l-2,0.5c-0.3,0.1-0.4,0.3-0.4,0.6c0.1,0.2,0.3,0.4,0.5,0.4c0,0,0.1,0,0.1,0l2-0.5		c0.3-0.1,0.4-0.3,0.4-0.6C117.4,88.1,117.2,87.9,116.9,88z M117.5,87.2c-0.1-0.3-0.3-0.4-0.6-0.4l-2,0.5c-0.3,0.1-0.4,0.3-0.4,0.6		c0.1,0.2,0.3,0.4,0.5,0.4c0,0,0.1,0,0.1,0l2-0.5C117.4,87.7,117.5,87.5,117.5,87.2z M114.5,85.5c0.1,0.2,0.3,0.4,0.5,0.4		c0,0,0.1,0,0.1,0l2-0.5c0.3-0.1,0.4-0.3,0.4-0.6c-0.1-0.3-0.3-0.4-0.6-0.4l-2,0.5C114.6,84.9,114.5,85.2,114.5,85.5z M115,57.6V82		c0,0.2,0,0.3,0.1,0.4l-0.2,0.1c-0.3,0.1-0.4,0.3-0.4,0.6c0.1,0.2,0.3,0.4,0.5,0.4c0,0,0.1,0,0.1,0l2-0.5c0.3-0.1,0.4-0.3,0.4-0.6		c-0.1-0.2-0.3-0.4-0.5-0.4c0,0,0,0,0,0V47.3c0-0.6-0.4-1-1-1c-0.4,0-0.7,0.2-0.9,0.6L65.3,25.7c-0.9-0.3-1.8-0.3-2.7,0L0.7,52		c-0.9,0.3-0.9,1.6,0,2L27,61.7v-0.3c0-3.3,3.9-6.1,11.3-8.2c6.9-2,16-3.1,25.7-3.1s18.8,1.1,25.7,3.1c7.4,2.1,11.3,5,11.3,8.2v0.3		L115,57.6z M117.9,92.7c0.1-0.2,0.1-0.4,0.1-0.7c0-0.8-0.5-1.5-1.1-1.8l0.3-0.1c0.3-0.1,0.4-0.3,0.4-0.6c-0.1-0.3-0.3-0.4-0.6-0.4		l-2,0.5c-0.3,0.1-0.4,0.3-0.4,0.6c0,0.1,0.1,0.2,0.2,0.3c-0.4,0.4-0.7,0.9-0.7,1.5c0,0.2,0,0.5,0.1,0.7c-0.7,0.5-1.1,1.4-1.1,2.3		c0,3.2,2.7,3.9,1,9c0,0,1.9-1,3.1-2.9L117,103c0,0,2-2.9,2-8C119,94.1,118.6,93.2,117.9,92.7z M64,51.2c-19.9,0-36,4.6-36,10.3		c0,2.3,0,10.9,0,13.2C28,80.4,57,78,64,85c6.9-6.9,36-4.6,36-10.3c0-2.3,0-10.9,0-13.2C100,55.8,83.9,51.2,64,51.2z"></path></g></g><g transform="scale(8)" id="group_1"><path d="M13,8.2c0,0.3,0,1.7,0,2c0,0.8-4,0.8-5,1.7c-1-1-5-0.9-5-1.7c0-0.3,0-1.7,0-2C3,7.4,5.2,7,8,7C10.8,7,13,7.4,13,8.2z	 M15.7,6.1L8.9,3.2c-0.6-0.2-1.2-0.2-1.8,0L0.3,6.1c-0.4,0.2-0.4,0.8,0,1l2,0.9c0,0-0.1-2,5.7-2c5.9,0,5.8,2,5.8,2L14,7.9v5.6	c0,0.3,0.2,0.5,0.5,0.5s0.5-0.2,0.5-0.5V7.4l0.7-0.3C16.1,7,16.1,6.3,15.7,6.1z"></path></g><g transform="scale(4)" id="group_2"><path d="M29.1,21.3c0.1,0.1,0.2,0.3,0.2,0.5c0,1.3-0.5,2-0.5,2l0-0.5C28.5,23.8,28,24,28,24c0.4-1.3-0.2-1.5-0.2-2.2	c0-0.2,0.1-0.3,0.2-0.5c-0.2-0.2-0.4-0.5-0.4-0.8c0-0.4,0.2-0.7,0.5-0.8v-4.7l-2,0.7v-0.1c0-2.8-6.3-3.6-10-3.6S6,12.8,6,15.6v0.1	l-5.7-2.1c-0.4-0.2-0.5-0.8,0-1l14.9-6.4c0.5-0.2,1.1-0.2,1.7,0L28.1,11c0.1-0.2,0.2-0.3,0.4-0.3c0.3,0,0.5,0.2,0.5,0.5v8.4	c0.3,0.2,0.5,0.5,0.5,0.8C29.5,20.8,29.3,21.1,29.1,21.3z M16,13c-5,0-9,1.2-9,2.6c0,0.6,0,2.7,0,3.3c0,1.4,7.3,0.8,9,2.6	c1.7-1.7,9-1.2,9-2.6c0-0.6,0-2.7,0-3.3C25,14.2,21,13,16,13z M31.7,12.6L30,11.9v2.3l1.7-0.6C32.1,13.4,32.1,12.8,31.7,12.6z"></path></g></svg>